HIERARCHY
ROOT pelvis
{
  OFFSET 0 100 0
  CHANNELS 6 Xposition Yposition Zposition Zrotation Xrotation Yrotation
  JOINT pelvis_right_femur
  {
    OFFSET -10.78128 -3.44521 -0.5502486
    CHANNELS 3 Zrotation Xrotation Yrotation
    JOINT right_femur_tibia
    {
      OFFSET -0.8047443 -44.0398 -0.1307829
      CHANNELS 3 Zrotation Xrotation Yrotation
      JOINT right_tibia_foot
      {
        OFFSET 3.006224 -47.83518 -5
        CHANNELS 3 Zrotation Xrotation Yrotation
        End Site
        {
          OFFSET 0 -5 15
        }
      }
    }
  }
  JOINT pelvis_left_femur
  {
    OFFSET 10.78128 -3.44521 -0.5502486
    CHANNELS 3 Zrotation Xrotation Yrotation
    JOINT left_femur_tibia
    {
      OFFSET 0.8047443 -44.0398 -0.1307829
      CHANNELS 3 Zrotation Xrotation Yrotation
      JOINT left_tibia_foot
      {
        OFFSET -4.370144 -48.10324 -4.275266
        CHANNELS 3 Zrotation Xrotation Yrotation
        End Site
        {
          OFFSET 0 -5 15
        }
      }
    }
  }
  JOINT pelvis_spine1
  {
    OFFSET 0 6.468898 -3.129235
    CHANNELS 3 Zrotation Xrotation Yrotation
    JOINT spine1
    {
      OFFSET 0 23.15396 4.99043
      CHANNELS 3 Zrotation Xrotation Yrotation
      JOINT spine2
      {
        OFFSET 0 20.79997 -5.064912
        CHANNELS 3 Zrotation Xrotation Yrotation
        JOINT neck
        {
          OFFSET 0 14.38658 9.616178
          CHANNELS 3 Zrotation Xrotation Yrotation
          End Site
          {
            OFFSET 0 20 0
          }
        }
      }
      JOINT right_manubrium
      {
        OFFSET -5.722621 16.35077 3.967754
        CHANNELS 3 Zrotation Xrotation Yrotation
        JOINT right_clavicle
        {
          OFFSET -13.16364 1.694482 -4.693211
          CHANNELS 3 Zrotation Xrotation Yrotation
          JOINT right_humerus
          {
            OFFSET -28.5034 -0.3100689 -2.792744
            CHANNELS 3 Zrotation Xrotation Yrotation
            JOINT right_radius
            {
              OFFSET -25.15693 0.02248979 -1.271978
              CHANNELS 3 Zrotation Xrotation Yrotation
              End Site
              {
                OFFSET -15 0 0
              }
            }
          }
        }
      }
      JOINT left_manubrium
      {
        OFFSET 5.722621 16.35077 3.967754
        CHANNELS 3 Zrotation Xrotation Yrotation
        JOINT left_clavicle
        {
          OFFSET 13.16364 1.694482 -4.693211
          CHANNELS 3 Zrotation Xrotation Yrotation
          JOINT left_humerus
          {
            OFFSET 29.39168 -1.063119 -2.237045
            CHANNELS 3 Zrotation Xrotation Yrotation
            JOINT left_radius
            {
              OFFSET 24.59957 -0.9528479 0.9047498
              CHANNELS 3 Zrotation Xrotation Yrotation
              End Site
              {
                OFFSET 15 -0 -0
              }
            }
          }
        }
      }
    }
  }
}
MOTION
Frames: 9
Frame Time: 0.0416666666667
0 103.5113 0 1.369509 -1.139623 0.06442436 2.846498 -16.87142 7.979359 -0 35.7098 -0 -5.394777 -16.5129 -3.313799 -7.222378 12.18603 -23.50483 -0 4.646287 -0 6.858334 -18.05136 25.64239 -2.647919 -5.279092 3.370108 3.644147 7.281131 -9.958554 0.08882303 19.82067 9.420255 3.947711 -26.12515 10.0538 6.544494 -18.55572 12.87863 82.76606 32.01183 -17.11531 -0 0 19.29922 -11.91877 10.72085 6.376044 9.895112 -21.99094 5.949318 -93.6005 17.71605 20.11712 0 0 -7.522928 11.18178 18.89054 -4.000642
0.1800358 103.2845 1.509081 0.307294 -0.1348399 -0.06643425 4.586243 -20.99841 9.000403 -0 36.19755 -0 -5.623307 -14.79294 -3.774018 -6.339284 12.39883 -23.44541 -0 5.240198 -0 4.760704 -20.05743 25.11363 -2.498834 -5.232564 3.458268 3.542754 7.398353 -9.928544 0.1526781 19.76728 9.434555 4.063097 -26.06372 10.03711 6.477774 -18.57208 12.84285 82.83722 32.00406 -17.18658 -0 0 19.32147 -11.7752 10.69572 6.127651 10.08152 -22.22113 5.966258 -93.59116 17.79335 19.98344 0 0 -7.84077 11.28665 18.97471 -3.91935
0.3890842 102.6241 3.713957 0.09702486 0.8640893 -0.08319019 4.876471 -25.80157 6.404826 -0 28.59933 -0 -6.652828 -11.16815 -2.394229 -6.433922 12.78764 -21.14032 -0 4.844545 -0 7.162403 -20.72597 24.05329 -2.30123 -1.632166 8.642194 -0.03972096 9.667162 -4.474433 0.6305159 21.06352 6.449649 3.753043 -20.62978 6.1293 3.024233 -21.45859 11.55536 77.90314 30.97045 -6.569118 -0 0 23.11995 -22.29925 10.99756 13.52095 5.993267 -18.67592 0.2271559 -93.16652 21.23351 25.65372 0 0 -11.52591 4.235142 8.847676 8.203198
0.6333609 101.8196 6.264471 -0.3990828 2.115887 -0.06832946 5.892011 -29.53046 6.437608 -0 24.91987 -0 -6.450037 -9.037202 -2.191255 -6.206575 12.69504 -20.10771 -0 5.262755 -0 7.20196 -21.79695 23.30927 -2.895471 -1.224543 8.022803 0.2175198 11.19294 -5.162164 0.5139781 22.11341 6.099713 3.350922 -20.71145 6.152312 4.390317 -20.29743 11.70175 81.08369 34.39938 -10.18969 -0 0 17.57098 -20.74808 11.20597 12.62858 4.595877 -19.54195 -2.21769 -91.68532 22.49221 23.82031 0 0 -13.91268 5.365889 8.712843 7.803669
0.9031714 100.8949 9.203373 -0.5365868 3.22605 0.0469815 6.592041 -32.19716 6.342606 -0 20.78406 -0 -6.036924 -7.208862 -1.764528 -6.383742 12.80005 -19.24345 -0 5.967969 -0 8.333765 -22.08826 23.12991 -2.903455 -1.504112 7.535827 0.7376866 11.37525 -5.759593 0.6180917 22.28392 5.967657 3.113756 -21.69896 6.624 5.03066 -19.9366 11.48031 82.2668 35.9773 -12.23836 -0 0 15.65631 -17.82504 11.0088 10.86309 4.664661 -20.18189 -2.417499 -91.6874 23.00685 23.12847 0 0 -14.70878 7.274679 10.26821 6.048135
1.191132 99.89673 12.63217 -0.7606448 4.099756 0.3261171 7.145557 -34.45188 5.988322 -0 16.65176 -0 -5.703344 -4.965693 -1.440544 -6.38985 13.24549 -18.12741 -0 7.189798 -0 8.16594 -22.57655 22.10057 -2.870326 -1.949183 7.19289 1.134837 11.3328 -6.171514 0.8437099 22.34691 5.765952 2.783823 -22.76555 7.269119 5.408569 -19.91299 11.09279 83.21418 36.98621 -13.90531 -0 0 14.73407 -14.71076 10.47537 8.953916 4.876651 -20.51061 -2.327211 -92.22009 23.62983 23.20671 0 0 -14.99014 9.167572 11.93773 4.357527
1.474271 98.94582 16.66761 -0.992395 4.755739 0.8271457 7.606072 -35.92602 5.510915 -0 13.215 -0 -5.531416 -2.692795 -1.116217 -6.358014 14.12676 -16.96058 -0 9.189622 -0 7.595226 -22.47343 20.73134 -2.686937 -2.362713 6.824861 1.488583 11.17211 -6.527961 1.182701 22.22332 5.527214 2.496714 -23.79753 7.966078 5.621418 -19.93685 10.6776 84.26064 37.21974 -15.76931 -0 0 14.39155 -11.58454 9.813398 6.890581 5.242802 -20.70331 -2.140706 -93.02734 24.35182 23.4636 0 0 -15.15546 10.67575 13.54738 3.054441
1.730141 98.17907 21.43583 -1.417843 5.140655 1.571031 8.092512 -36.44747 5.060478 -0 11.09768 -0 -5.639648 -0.6551229 -0.9890819 -5.996229 15.30576 -15.64495 -0 12.45533 -0 5.534874 -21.70419 18.35689 -2.430596 -2.662562 6.450459 1.784298 10.94266 -6.814292 1.531852 21.97479 5.32683 2.309925 -24.65856 8.582497 5.699747 -19.92837 10.35273 85.25302 36.89628 -17.5365 -0 0 14.41969 -9.009214 9.17876 5.105993 5.629796 -20.76649 -1.936809 -93.85331 24.99655 23.74699 0 0 -15.24683 11.60738 14.82009 2.256759
1.955018 97.77302 26.92894 -2.155517 5.276181 2.45843 8.904653 -35.51994 5.136327 -0 11.47844 -0 -6.213509 0.2361296 -1.09127 -5.181818 16.08098 -14.48577 -0 17.61266 -0 2.075405 -19.57435 15.2372 -2.161654 -2.734799 6.09746 2.024155 10.69947 -7.032415 1.753088 21.69306 5.249992 2.324583 -25.15544 8.888226 5.691004 -19.768 10.22037 85.91935 36.24854 -18.85167 -0 0 14.53846 -7.606171 8.869945 4.018543 5.970994 -20.81571 -1.770888 -94.41091 25.46075 23.76315 0 0 -15.35068 11.65131 15.56237 2.211383
